<svg xmlns="http://www.w3.org/2000/svg" width="72.608" height="513.783" viewBox="0 0 72.608 513.783">
  <g id="Grupo_1" data-name="Grupo 1" transform="translate(-214.444 -33.722)">
    <path id="Trazado_7" data-name="Trazado 7" d="M284.075,99.232c0,404.878-40.86,404.71-40.86,404.71V289.912l19.457-91.449L229.595,89.5Z" fill="#ad48ef" stroke="#707070" stroke-width="1" opacity="0.69"/>
    <path id="Trazado_8" data-name="Trazado 8" d="M153.712,501.023V85.612L128.417,219.866,89.5,289.912l38.914,91.449L108.96,441.678Z" transform="translate(125.497 -24.27)" fill="#480bc4" stroke="#707070" stroke-width="1" opacity="0.48"/>
    <path id="Trazado_9" data-name="Trazado 9" d="M69.264,89.5c0,428.109-16.73,435.841-16.73,435.841L19.457,428.058l23.349-73.937s25.294,35.023,0-9.729-40.86-23.349-23.349-62.263,36.969,410.547,0-11.674S69.264,71.992,69.264,71.992H52.534Z" transform="translate(217.058 21.474)" fill="#f67b1d" stroke="#707070" stroke-width="1" opacity="0.55"/>
  </g>
</svg>
